# xmcd
#
# Track frame offsets:
#	150
#	14867
#	28175
#	40615
#	56614
#	74082
#	81332
#	99012
#
# Disc length: 1519 seconds
#
# Revision: 0
# Processed by: cddbd v1.5PL3 Copyright (c) Steve Scherf et al.
# Submitted via: dBpowerAMP V4.0
#
DISCID=6805ed08
DTITLE=Kevin Paul Hodges - Clemson Country
DYEAR=1900
DGENRE=
TTITLE0=Where the Big Boys Go
TTITLE1=Clemson Lady
TTITLE2=Rub That Rock
TTITLE3=The Legend
TTITLE4=Honey of the South
TTITLE5=Tiger Band Song
TTITLE6=Clemson Rose
TTITLE7=Chicken Blues
EXTD=
EXTT0=
EXTT1=
EXTT2=
EXTT3=
EXTT4=
EXTT5=
EXTT6=
EXTT7=
PLAYORDER=
